<svg width="98" height="56" viewBox="0 0 98 56" fill="none" xmlns="http://www.w3.org/2000/svg">
<path fill-rule="evenodd" clip-rule="evenodd" d="M68.4954 26.4991C64.1128 24.8586 62.7938 24.4272 60.4822 21.7514C57.7466 22.9328 54.6925 23.957 51.7198 23.7121C50.8359 23.5401 48.8519 22.9267 46.5318 21.6867C46.3767 23.0218 45.8828 24.7025 45.2355 26.4991C45.2589 26.5079 45.2824 26.5167 45.3059 26.5255C45.9668 26.7599 47.475 27.6977 48.2213 29.5733C48.6957 30.7654 49.9538 32.1089 51.1374 33.3728C51.5151 33.7762 51.8853 34.1715 52.2199 34.5511C52.6431 34.6752 53.0696 34.8021 53.4994 34.932C56.9546 35.9759 60.1938 36.8277 63.227 37.5108C63.0463 35.3374 63.2435 33.3934 64.0178 32.5039C65.0847 31.2782 65.2054 32.4556 65.2585 34.4001C65.2923 34.3157 65.3274 34.2307 65.3639 34.1451C65.5201 33.7786 65.6816 33.4021 65.8463 33.018C66.7381 30.9385 67.7253 28.6367 68.4954 26.4991ZM57.9005 28.4011C56.2212 27.1819 57.2008 27.1898 57.9005 27.3461C58.7279 27.3461 59.1732 27.2762 59.5777 27.2128C59.9143 27.16 60.2226 27.1116 60.6992 27.1116C61.5629 27.1116 61.2421 27.826 60.7764 28.8628C60.6762 29.086 60.5693 29.3242 60.466 29.5733C60.0976 30.462 60.0085 30.3682 59.4636 29.7943C59.1459 29.4598 58.6734 28.9622 57.9005 28.4011Z" fill="#7F9CD2"/>
<path d="M69.7916 21.6867C68.9487 21.2362 68.0614 20.7029 67.1664 20.0782C66.8387 19.8494 66.4595 19.5724 66.0374 19.2564C65.1606 19.591 64.1648 20.058 63.0833 20.5652C62.261 20.9509 61.3891 21.3598 60.4822 21.7514C62.7938 24.4272 64.1128 24.8586 68.4954 26.4991C69.1427 24.7025 69.6366 23.0218 69.7916 21.6867Z" fill="#3361B8"/>
<path d="M23.9424 7.03554C23.1932 7.36703 22.831 8.14583 24.0819 9.76241C25.096 11.0731 26.2301 11.6601 27.5421 12.3392C29.3985 13.3 31.6111 14.4452 34.3441 18.0853C35.5272 19.6611 36.4327 20.8372 37.2224 21.7514C38.1293 21.3598 39.0012 20.9509 39.8235 20.5652C40.905 20.058 41.9007 19.591 42.7776 19.2564C41.8773 18.5824 40.7817 17.7311 39.574 16.7926C34.0945 12.5348 26.3036 6.48103 23.9424 7.03554Z" fill="#7F9CD2"/>
<path d="M47.3417 9.76241C49.7906 12.9275 52.9393 11.8724 57.6039 18.0853C58.787 19.6611 59.6925 20.8373 60.4822 21.7514C61.3891 21.3598 62.261 20.9509 63.0833 20.5652C64.1648 20.058 65.1606 19.591 66.0374 19.2564C61.0527 15.5247 50.0839 6.3588 47.2022 7.03554C46.4531 7.36703 46.0909 8.14583 47.3417 9.76241Z" fill="#3361B8"/>
<path fill-rule="evenodd" clip-rule="evenodd" d="M68.5658 26.5255C69.2266 26.7599 70.7348 27.6977 71.4812 29.5733C72.4141 31.9178 76.3791 34.8484 76.8455 36.6068C77.0664 37.4394 76.8166 38.3772 76.9381 39.6442C81.1755 39.9626 84.8046 39.8657 87.8824 39.4884C87.678 37.8977 87.7507 36.1927 88.6237 34.1451C91.0726 28.4011 94.8043 20.1954 92.2388 18.9059C89.6732 17.6164 82.0932 24.2982 74.9797 23.7121C74.0958 23.5401 72.1118 22.9267 69.7916 21.6867C69.6366 23.0218 69.1427 24.7025 68.4954 26.4991L68.5658 26.5255ZM81.1603 28.4011C79.481 27.1819 80.4606 27.1898 81.1603 27.3461C82.6763 27.3461 82.9095 27.1116 83.9591 27.1116C85.0086 27.1116 84.3089 28.1666 83.7258 29.5733C83.1428 30.98 83.2594 29.925 81.1603 28.4011Z" fill="#3361B8"/>
<path d="M67.1664 20.0782C68.0614 20.7029 68.9487 21.2362 69.7916 21.6867C69.9521 20.305 69.7497 19.2933 68.979 18.9059C68.3084 18.5689 67.2953 18.7764 66.0374 19.2564C66.4595 19.5724 66.8387 19.8494 67.1664 20.0782Z" fill="#7F9CD2"/>
<path fill-rule="evenodd" clip-rule="evenodd" d="M25.1478 29.9766C30.0483 30 35.9411 30.6314 42.9515 32.1661C45.8473 32.8 48.9339 33.5881 52.2199 34.5511C52.6431 34.6752 53.0696 34.8021 53.4994 34.932C56.9546 35.9759 60.1938 36.8277 63.227 37.5108C63.6661 37.6096 64.1008 37.705 64.5313 37.7968C64.8316 37.8609 65.1299 37.9233 65.4261 37.9841C69.682 38.857 73.5093 39.3866 76.9381 39.6442C81.1755 39.9626 84.8046 39.8657 87.8824 39.4884C91.9604 38.9885 95.0708 37.9964 97.347 36.8256L97.3661 36.8157C97.8279 36.5862 98.3409 36.926 97.6968 37.4425C95.7108 38.9425 92.6142 40.3561 88.1828 41.155C85.2315 41.687 81.688 41.9464 77.4862 41.7771C74.0578 41.6389 70.1911 41.2153 65.8501 40.4214C65.4815 40.354 65.1095 40.2839 64.734 40.2111C64.3508 40.1368 63.964 40.0597 63.5735 39.9796C60.503 39.3502 57.2092 38.5421 53.6807 37.5283C53.0069 37.3347 52.3246 37.1336 51.6336 36.9248C48.2198 35.8933 45.0159 35.0477 42.0125 34.3656L41.9987 34.4001L41.9977 34.3622C41.3593 34.2173 40.73 34.0799 40.1097 33.9495C35.0577 32.8882 30.6006 32.3028 26.6894 32.0779C23.6106 31.9008 20.87 31.9471 18.4438 32.1603C18.3032 31.9434 18.0921 31.9398 17.7702 32.2246C13.2369 32.6918 9.84812 33.7518 7.43618 35.0088C6.59655 35.4134 6.61987 34.8002 7.08634 34.4183C10.0848 32.092 15.8174 29.9322 25.1478 29.9766Z" fill="#3361B8"/>
<path fill-rule="evenodd" clip-rule="evenodd" d="M22.0461 26.5255C22.7069 26.7599 24.2152 27.6977 24.9615 29.5733C25.0143 29.706 25.0768 29.8405 25.1478 29.9766C30.0483 30 35.9411 30.6314 42.9515 32.1661C43.7404 30.3211 44.5692 28.3487 45.2355 26.4991C45.0911 26.4451 44.9499 26.3923 44.812 26.3407C40.7649 24.8277 39.4577 24.339 37.2224 21.7514C34.4868 22.9328 31.4327 23.957 28.46 23.7121C27.2549 23.4777 24.0053 22.4226 20.6467 20.0782C19.6199 19.3614 18.0882 18.1711 16.3141 16.7926C10.8346 12.5348 3.04378 6.48103 0.68253 7.03554C-0.0665967 7.36703 -0.428791 8.14583 0.822025 9.76241C1.83613 11.0731 2.97022 11.6601 4.28227 12.3392C6.13863 13.3 8.35122 14.4452 11.0842 18.0853C15.6162 24.1216 16.0753 24.2932 21.5521 26.3407C21.7124 26.4006 21.877 26.4622 22.0461 26.5255ZM34.6406 28.4011C32.9613 27.1819 33.9409 27.1898 34.6406 27.3461C35.4681 27.3461 35.9134 27.2762 36.3179 27.2128C36.6544 27.16 36.9627 27.1116 37.4394 27.1116C38.303 27.1116 37.9822 27.826 37.5166 28.8628C37.4164 29.086 37.3094 29.3242 37.2062 29.5733C36.8378 30.462 36.7487 30.3682 36.2037 29.7943C35.8861 29.4598 35.4136 28.9622 34.6406 28.4011Z" fill="#A6BAE0"/>
<path d="M45.2355 26.4991C45.8828 24.7025 46.3767 23.0218 46.5318 21.6867C45.6889 21.2362 44.8016 20.7029 43.9066 20.0782C43.5788 19.8494 43.1997 19.5724 42.7776 19.2564C41.9007 19.591 40.905 20.058 39.8235 20.5652C39.0012 20.9509 38.1293 21.3598 37.2224 21.7514C39.4577 24.339 40.7649 24.8277 44.812 26.3407C44.9499 26.3923 45.0911 26.4451 45.2355 26.4991Z" fill="#7F9CD2"/>
<path d="M46.5318 21.6867C46.6923 20.305 46.4899 19.2933 45.7191 18.9059C45.0485 18.5689 44.0354 18.7764 42.7776 19.2564C43.1997 19.5724 43.5788 19.8494 43.9066 20.0782C44.8016 20.7029 45.6889 21.2362 46.5318 21.6867Z" fill="#A6BAE0"/>
<path d="M18.7344 34.2457C18.7413 34.4737 18.7469 34.7133 18.7527 34.9617C18.7613 35.3314 18.7703 35.7209 18.7848 36.1205C22.1042 35.9795 25.9425 36.1349 30.349 36.7022C30.3419 36.6702 30.3342 36.6384 30.3258 36.6068C30.1581 35.9747 29.5384 35.1911 28.7699 34.3377C24.9593 34.0096 21.6273 34.0098 18.7344 34.2457Z" fill="#7F9CD2"/>
<path d="M18.7527 34.9617C18.7469 34.7133 18.7413 34.4737 18.7344 34.2457C18.0504 34.3015 17.391 34.3704 16.7555 34.4513C16.6729 34.9963 16.6385 35.6071 16.646 36.2572C17.3336 36.1978 18.0464 36.1518 18.7848 36.1205C18.7703 35.7209 18.7613 35.3314 18.7527 34.9617Z" fill="#7F9CD2"/>
<path d="M5.22048 38.5212C4.75402 38.9031 4.7307 39.5163 5.57033 39.1117C8.11204 37.787 11.7385 36.6812 16.646 36.2572C16.6385 35.6071 16.6729 34.9963 16.7555 34.4513C11.1718 35.1622 7.44421 36.7959 5.22048 38.5212Z" fill="#7F9CD2"/>
<path d="M30.349 36.7022C33.3242 37.0852 36.5584 37.6561 40.0667 38.4503C39.959 37.6081 39.9014 36.7819 39.905 36.0168C35.809 35.164 32.106 34.625 28.7699 34.3377C29.5384 35.1911 30.1581 35.9747 30.3258 36.6068C30.3342 36.6384 30.3419 36.6702 30.349 36.7022Z" fill="#7F9CD2"/>
<path d="M41.2892 38.7336C41.2405 37.9769 41.2689 37.188 41.4267 36.3441C40.9135 36.2302 40.4063 36.1211 39.905 36.0168C39.9014 36.7819 39.959 37.6081 40.0667 38.4503C40.4706 38.5418 40.8781 38.6362 41.2892 38.7336Z" fill="#7F9CD2"/>
<path d="M42.1573 37.8963C42.1945 38.27 42.2396 38.6292 42.2935 38.9758C44.6648 39.5575 47.1548 40.2381 49.7677 41.0276C51.394 41.519 52.9723 41.9678 54.5039 42.3764C53.9625 41.3067 53.7511 40.4107 53.6776 39.6374C53.0048 39.4441 52.3235 39.2433 51.6336 39.0348C48.2376 38.0087 45.0493 37.1665 42.0595 36.4863C42.0804 36.9511 42.1105 37.4258 42.1573 37.8963Z" fill="#7F9CD2"/>
<path d="M41.2892 38.7336C41.6216 38.8123 41.9564 38.893 42.2935 38.9758C42.2396 38.6292 42.1945 38.27 42.1573 37.8963C42.1105 37.4258 42.0804 36.9511 42.0595 36.4863C41.8475 36.4381 41.6366 36.3907 41.4267 36.3441C41.2689 37.188 41.2405 37.9769 41.2892 38.7336Z" fill="#7F9CD2"/>
<path d="M54.5039 42.3764C58.3102 43.392 61.8275 44.1598 65.0716 44.7171C65.0313 44.6331 64.991 44.5477 64.9507 44.4608C64.643 43.798 64.3601 43.0268 64.1146 42.1992C60.8898 41.5547 57.4154 40.7114 53.6776 39.6374C53.7511 40.4107 53.9625 41.3067 54.5039 42.3764Z" fill="#7F9CD2"/>
<path d="M65.627 44.8109C66.5981 44.9721 67.5442 45.1143 68.466 45.2384C67.7292 44.3918 67.1523 43.5612 66.7041 42.6839C66.2115 42.5981 65.7127 42.5075 65.2075 42.4119C65.3837 43.1939 65.5465 43.9836 65.627 44.8109Z" fill="#7F9CD2"/>
<path d="M64.9507 44.4608C64.991 44.5477 65.0313 44.6331 65.0716 44.7171C65.2577 44.7491 65.4428 44.7803 65.627 44.8109C65.5465 43.9836 65.3837 43.1939 65.2075 42.4119C64.8465 42.3435 64.4821 42.2727 64.1146 42.1992C64.3601 43.0268 64.643 43.798 64.9507 44.4608Z" fill="#7F9CD2"/>
<path d="M68.466 45.2384C72.868 45.8314 76.7129 46.014 80.0484 45.8987C80.0172 45.7016 79.9544 45.5321 79.8775 45.3986C79.4228 44.878 79.0364 44.3876 78.7084 43.9248C75.2037 43.8505 71.2163 43.47 66.7041 42.6839C67.1523 43.5612 67.7292 44.3918 68.466 45.2384Z" fill="#7F9CD2"/>
<path d="M80.0484 45.8987C83.5264 45.7784 86.4505 45.3343 88.8749 44.6938C88.8197 44.1777 88.7335 43.6759 88.6332 43.1808C85.8786 43.7142 82.5894 44.0072 78.7084 43.9248C79.0364 44.3876 79.4228 44.878 79.8775 45.3986C79.9544 45.5321 80.0172 45.7016 80.0484 45.8987Z" fill="#7F9CD2"/>
<path d="M95.5003 40.9186L95.4811 40.9284C93.719 41.8348 91.457 42.6341 88.6332 43.1808C88.7335 43.6759 88.8197 44.1777 88.8749 44.6938C91.9708 43.876 94.2519 42.7379 95.8309 41.5453C96.4751 41.0288 95.962 40.6891 95.5003 40.9186Z" fill="#7F9CD2"/>
<path d="M18.4438 32.1603C18.3032 31.9434 18.0921 31.9398 17.7702 32.2246C17.992 32.2017 18.2165 32.1803 18.4438 32.1603Z" fill="#3361B8"/>
<path d="M64.0178 32.5039C63.2435 33.3934 63.0463 35.3374 63.227 37.5108C63.6661 37.6096 64.1008 37.705 64.5313 37.7968C64.5609 36.755 64.7629 35.6404 65.2585 34.4001C65.2054 32.4556 65.0847 31.2782 64.0178 32.5039Z" fill="#7F9CD2"/>
</svg>
